<?xml version="1.0" encoding="UTF-8"?>
<svg version="1.1" xmlns="http://www.w3.org/2000/svg" width="1024" height="1024">
<path d="M0 0 C337.92 0 675.84 0 1024 0 C1024 337.92 1024 675.84 1024 1024 C686.08 1024 348.16 1024 0 1024 C0 686.08 0 348.16 0 0 Z " fill="#024885" transform="translate(0,0)"/>
<path d="M0 0 C3.04613189 5.94717809 5.90583796 11.89904277 8.390625 18.1015625 C8.6922052 18.84368988 8.9937854 19.58581726 9.30450439 20.35043335 C9.95187308 21.94360295 10.59764904 23.53742055 11.24194336 25.13183594 C13.0000577 29.48007125 14.77260556 33.8223984 16.546875 38.1640625 C16.91377441 39.06191467 17.28067383 39.95976685 17.65869141 40.88482666 C21.5144734 50.29562383 25.50118422 59.64930769 29.5 69 C36.9202588 86.36471183 44.12240462 103.81289066 51.25953674 121.295578 C54.17456372 128.43423159 57.11278663 135.56309928 60.0625 142.6875 C60.76753662 144.3905127 60.76753662 144.3905127 61.48681641 146.12792969 C65.85940695 156.67837659 70.25840375 167.21780862 74.65557861 177.75802612 C79.82450363 190.15015022 84.94491047 202.5609179 90 215 C95.44142146 204.83644879 99.75690579 194.23272196 104.14144897 183.58422852 C106.36046819 178.19659261 108.59469637 172.81526869 110.828125 167.43359375 C111.27286667 166.36120453 111.71760834 165.28881531 112.17582703 164.18392944 C115.94966517 155.09506491 119.79488944 146.0385389 123.6875 137 C124.28337674 135.61540181 124.87924261 134.23079894 125.47509766 132.84619141 C126.37462141 130.75618359 127.27419941 128.66619937 128.17410278 126.57635498 C132.08014493 117.49974248 135.94696619 108.40642084 139.8125 99.3125 C140.17822113 98.45246368 140.54394226 97.59242737 140.92074585 96.70632935 C144.99009069 87.13411401 149.03109082 77.55188495 153 67.9375 C158.09871093 55.59183326 163.47858578 43.36743687 168.84960938 31.13842773 C169.20239456 30.33339813 169.55517975 29.52836853 169.9186554 28.69894409 C170.56756167 27.21842818 171.21790142 25.73853893 171.87028503 24.259552 C175.38876248 16.22706538 178.65804674 8.1161722 182 0 C224.9 0 267.8 0 312 0 C312 6.27 312 12.54 312 19 C310.185 19.556875 308.37 20.11375 306.5 20.6875 C298.30110624 23.43977882 291.94108268 26.65896288 287 34 C284.37874864 40.02067287 283.56375302 45.56763721 283.61473083 52.08111572 C283.60949514 52.94942984 283.60425944 53.81774396 283.59886509 54.71237063 C283.58498934 57.59777996 283.59218323 60.48273634 283.59936523 63.36816406 C283.59361807 65.44689834 283.5865334 67.52562928 283.57821655 69.60435486 C283.56313509 74.06991925 283.5573265 78.53536432 283.55874443 83.00095367 C283.56078339 90.07075095 283.54117454 97.14038867 283.51856995 104.21014404 C283.47763139 117.94797889 283.45900464 131.68580109 283.44239807 145.42368317 C283.42003246 162.89544229 283.38636822 180.36716428 283.33519894 197.83886313 C283.31534863 204.85759047 283.30570202 211.87623423 283.30424678 218.89498854 C283.30148346 223.27359169 283.29062475 227.6521492 283.27773666 232.03073311 C283.27348107 234.05064785 283.27258057 236.0705731 283.27541161 238.09049034 C283.30639541 263.07654974 279.56171948 284.4106198 261.9296875 303.20703125 C254.57829598 310.31508403 245.80351739 315.33608213 237.14648438 320.67089844 C228.87984374 325.7895963 219.72566177 331.52915886 216 341 C215.26355196 347.07141463 214.9938215 353.26423354 218.63671875 358.421875 C219.08660156 358.94265625 219.53648437 359.4634375 220 360 C220.50144531 360.58265625 221.00289063 361.1653125 221.51953125 361.765625 C231.49481571 371.76264211 247.58295818 374.42886439 260.84921265 377.5244751 C263.76924299 378.20659519 266.68531468 378.90382694 269.60083008 379.60498047 C273.68466381 380.58631086 277.76949902 381.56324556 281.85546875 382.53564453 C367.16009221 402.85085015 367.16009221 402.85085015 390 422 C381.37347619 402.41060218 355.56538664 391.13383022 336.9375 383.6875 C333.64066246 382.41291411 330.32668672 381.19429476 327 380 C326.15083008 379.69223633 325.30166016 379.38447266 324.42675781 379.06738281 C313.59446228 375.18334129 302.74470855 372.00291656 291.48657227 369.59692383 C290.65053467 369.41411865 289.81449707 369.23131348 288.953125 369.04296875 C288.21223633 368.88852295 287.47134766 368.73407715 286.70800781 368.57495117 C285 368 285 368 284 366 C329.03104018 369.93361107 376.14765208 378.40224111 418 396 C418.81807129 396.33854004 419.63614258 396.67708008 420.47900391 397.02587891 C443.93390258 406.82405173 465.67387059 419.55367091 476 444 C476.47953125 445.13115234 476.47953125 445.13115234 476.96875 446.28515625 C482.10130514 460.51849203 479.11071915 476.8144162 472.875 490.125 C463.17001371 508.47698665 446.58566497 521.0858021 430.55053711 533.62817383 C423.89867777 538.84052571 417.35221927 544.18068935 410.80859375 549.52783203 C409.21217383 550.82729371 407.60675566 552.11568394 406 553.40234375 C399.8197851 558.36987114 393.9394777 563.60519477 388.140625 569.0078125 C387.65304749 569.45602576 387.16546999 569.90423903 386.66311741 570.36603451 C384.9699745 571.96854603 384.9699745 571.96854603 383.54175472 573.79551792 C381.16289442 576.59872916 379.24429267 578.66781093 375.62520027 579.63400078 C372.79383979 579.85983289 370.03902074 579.86656746 367.19946289 579.79467773 C365.60322083 579.79621101 365.60322083 579.79621101 363.97473145 579.79777527 C360.47300741 579.79291577 356.97392218 579.73854697 353.47265625 579.68359375 C351.03886845 579.67053186 348.6050622 579.66057048 346.17124939 579.65357971 C339.77734216 579.62690147 333.38455479 579.55817804 326.99108887 579.48065186 C320.4623123 579.40893938 313.93335409 579.37705092 307.40429688 579.34179688 C294.60238786 579.26680944 281.8012536 579.14874861 269 579 C279.17652359 560.69434845 299.08896109 548.67837783 315.6875 536.578125 C329.68501108 526.36314745 343.3026723 515.81217745 356 504 C352.94805461 505.50122481 349.95943937 507.09659726 346.9765625 508.73046875 C334.93540643 515.29249862 322.83248202 521.68888539 310.5625 527.8125 C309.92361847 528.13147247 309.28473694 528.45044495 308.62649536 528.77908325 C301.15415544 532.5032299 293.64213707 536.12367976 286.0625 539.625 C275.015133 544.7596917 264.51495879 550.86476587 254 557 C252.64213379 557.78842285 252.64213379 557.78842285 251.25683594 558.59277344 C248.64438468 560.11439496 246.03941937 561.64794903 243.4375 563.1875 C242.68992432 563.62553955 241.94234863 564.0635791 241.17211914 564.51489258 C240.43340576 564.95728271 239.69469238 565.39967285 238.93359375 565.85546875 C237.81873439 566.51664168 237.81873439 566.51664168 236.68135262 567.19117165 C233.89722848 568.9665723 233.89722848 568.9665723 231.3764782 571.45467186 C220.31119097 581.52460838 208.03896475 580.34877499 193.80908203 580.13525391 C191.1665527 580.13242955 188.52430096 580.13358421 185.88180542 580.13967896 C180.21647635 580.14489449 174.5523088 580.11381999 168.88727188 580.05730057 C160.69703565 579.97564121 152.50735466 579.94994714 144.31675552 579.93742065 C131.02481771 579.91559449 117.73349749 579.84921061 104.44189453 579.75439453 C91.53893092 579.66244717 78.63613573 579.59174055 65.73291016 579.54931641 C64.93607347 579.54668917 64.13923678 579.54406194 63.31825353 579.54135509 C59.32031237 579.52830366 55.32237003 579.51566683 51.32442689 579.50323606 C18.21583519 579.39975641 -14.89199942 579.22379123 -48 579 C-47.06329852 577.90036097 -46.12560092 576.80157042 -45.1875 575.703125 C-44.66542969 575.09114258 -44.14335937 574.47916016 -43.60546875 573.84863281 C-20.88205303 547.68353186 14.25581928 529.44402021 46 517 C46.82242188 516.67290039 47.64484375 516.34580078 48.4921875 516.00878906 C85.09184129 501.58007939 123.10221086 496.55031224 161.76473999 490.9855957 C213.86126223 485.80564425 213.86126223 485.80564425 256.5625 459.75 C260.48973675 454.18734172 260.79225161 448.64762845 260 442 C256.39971637 432.53916499 248.0771975 427.62080946 239.29736328 423.60742188 C227.49703905 418.46870822 215.06760182 415.22976466 202.625 412.0625 C147.30020333 397.93456336 147.30020333 397.93456336 132 378 C126.43583789 368.4423036 123.30180194 360.2729784 125.578125 349.18359375 C129.90654886 335.35231204 142.54157588 326.35517554 154.0625 318.5 C159.47669817 314.77345537 164.28073517 310.56800634 169 306 C169.763125 305.26265625 170.52625 304.5253125 171.3125 303.765625 C190.87440664 283.52448549 194.28026138 256.79975213 194.31884766 229.84155273 C194.32818074 228.31196585 194.33835421 226.7823839 194.34928894 225.25280762 C194.3762229 221.16097995 194.39162752 217.06918594 194.40471697 212.97729373 C194.42051065 208.67851386 194.44724762 204.37980122 194.4727478 200.08106995 C194.51925165 191.96786361 194.55613171 183.85464422 194.58942068 175.74137408 C194.62784465 166.49322996 194.67720058 157.24515383 194.72740483 147.99706733 C194.83030155 128.99809487 194.91969726 109.99908073 195 91 C194.34 91 193.68 91 193 91 C192.74143471 91.81648262 192.74143471 91.81648262 192.47764587 92.64945984 C190.65867236 98.26399397 188.54110218 103.67068621 186.19140625 109.08203125 C185.6476963 110.34651093 185.6476963 110.34651093 185.09300232 111.63653564 C183.91960471 114.36335249 182.74112117 117.08793742 181.5625 119.8125 C180.73988526 121.72112235 179.91762279 123.62989658 179.09570312 125.53881836 C177.46781159 129.31884689 175.83824769 133.09814755 174.20751953 136.87695312 C171.91183643 142.19995763 169.63620759 147.53128918 167.36376953 152.86425781 C161.68011237 166.19327836 155.85499867 179.45816803 150.01763916 192.72036743 C144.11459141 206.13569887 138.28735752 219.58097594 132.53491211 233.06152344 C129.43988197 240.31308895 126.33028481 247.55753197 123.1796875 254.78515625 C114.71209509 274.22508302 106.4930261 293.75410738 98.46972656 313.38208008 C87.27313527 340.72686473 87.27313527 340.72686473 85 343 C82.3337397 343.08855161 79.69352886 343.11524673 77.02734375 343.09765625 C76.22970108 343.0962413 75.43205841 343.09482635 74.61024475 343.09336853 C72.05262565 343.08775316 69.49509282 343.07519812 66.9375 343.0625 C65.20768355 343.05748698 63.47786574 343.05292373 61.74804688 343.04882812 C57.49866447 343.03777875 53.24934688 343.02050386 49 343 C42.09179688 327.45654297 42.09179688 327.45654297 35.18359375 311.91308594 C34.88164597 311.23370468 34.57969818 310.55432343 34.26860046 309.85435486 C33.64669932 308.45507471 33.024802 307.05579286 32.40290833 305.6565094 C30.76698575 301.97563784 29.13099139 298.29479822 27.49487305 294.61401367 C24.0862755 286.94546501 20.67847576 279.27656364 17.27255249 271.60682678 C9.11266899 253.2320132 0.95049021 234.85860753 -7.28564453 216.51782227 C-11.39849054 207.35430737 -15.48472169 198.17915632 -19.5625 189 C-20.05385941 187.89415054 -20.05385941 187.89415054 -20.55514526 186.76596069 C-24.29818816 178.34151872 -28.03778192 169.91555294 -31.77400208 161.48808289 C-33.95247773 156.57493424 -36.13240809 151.66243163 -38.3125 146.75 C-38.73931061 145.78782562 -39.16612122 144.82565125 -39.60586548 143.83432007 C-45.01174329 131.65170209 -50.44840639 119.48696238 -56.10668945 107.41894531 C-56.49945068 106.57557617 -56.89221191 105.73220703 -57.296875 104.86328125 C-57.63041992 104.15469971 -57.96396484 103.44611816 -58.30761719 102.71606445 C-59 101 -59 101 -59 99 C-59.66 99 -60.32 99 -61 99 C-60.93941816 124.36532026 -60.86188467 149.73053999 -60.76428509 175.09574604 C-60.71935911 186.87379879 -60.67993702 198.65182152 -60.65356445 210.42993164 C-60.63055854 220.69820049 -60.59713143 230.96637408 -60.55129844 241.23456734 C-60.52740132 246.66924867 -60.5086495 252.10383586 -60.50238609 257.5385685 C-60.49631941 262.65953321 -60.47626227 267.78025716 -60.44572449 272.90113258 C-60.43696964 274.77512436 -60.43321636 276.64914764 -60.43499184 278.52315903 C-60.44426131 292.82845538 -59.92661324 305.54117675 -49.55859375 316.52734375 C-43.41699353 322.03302896 -36.90957925 324.02260519 -29 326 C-29 331.94 -29 337.88 -29 344 C-64.64 344 -100.28 344 -137 344 C-137 338.06 -137 332.12 -137 326 C-135.02 325.29875 -133.04 324.5975 -131 323.875 C-120.63569006 319.81255061 -115.93245636 316.07225775 -111.12890625 305.90234375 C-108.78796753 299.88394421 -108.85384766 294.19329924 -108.85955811 287.81646729 C-108.85658698 286.78132295 -108.85361586 285.74617862 -108.8505547 284.67966628 C-108.84187307 281.20603238 -108.8403599 277.73243296 -108.83886719 274.25878906 C-108.83423866 271.77022223 -108.82921395 269.28165611 -108.82382202 266.79309082 C-108.81069988 260.02853422 -108.80421666 253.2639911 -108.79981136 246.49942493 C-108.79704623 242.27355893 -108.79280839 238.04769521 -108.78830719 233.82183075 C-108.77611694 222.11561858 -108.765817 210.40940823 -108.7624321 198.70318985 C-108.76221253 197.95435626 -108.76199297 197.20552266 -108.76176675 196.43399714 C-108.76154847 195.68339998 -108.76133019 194.93280283 -108.7611053 194.15946031 C-108.76066184 192.63853343 -108.76021527 191.11760656 -108.75976562 189.59667969 C-108.7595442 188.84225184 -108.75932277 188.08782399 -108.75909463 187.31053469 C-108.75514739 175.08870356 -108.73769457 162.86693208 -108.7144061 150.64512399 C-108.69067488 138.08935208 -108.67822945 125.53361008 -108.67706418 112.97781539 C-108.67614844 105.93134673 -108.67042157 98.88495581 -108.65224457 91.83850861 C-108.63520506 85.20979646 -108.63360419 78.58120564 -108.64238358 71.95246887 C-108.6431544 69.52127945 -108.63880524 67.09008213 -108.62892532 64.65891266 C-108.61621575 61.3362553 -108.62207772 58.01412117 -108.63250732 54.69146729 C-108.62445092 53.73279259 -108.61639452 52.77411789 -108.60809398 51.78639245 C-108.66848591 43.54193477 -110.70853448 36.09742374 -115 29 C-121.07895614 23.09472832 -129.07219771 20.47743821 -137 18 C-137 12.39 -137 6.78 -137 1 C-124.15769256 0.86756886 -111.31536693 0.73707119 -98.47301674 0.60884857 C-92.5057646 0.54921276 -86.53851987 0.48898215 -80.57128906 0.42724609 C-53.71353783 0.14981634 -26.85937683 -0.09387982 0 0 Z " fill="#FBF8F0" transform="translate(273,218)"/>
<path d="M0 0 C43.89 0 87.78 0 133 0 C133 5.28 133 10.56 133 16 C130.64875 17.155 128.2975 18.31 125.875 19.5 C117.5962062 23.8082256 113.12600135 28.02831677 110.1875 37.0625 C108.24647199 44.13254748 107.84381148 51.13951313 107.79467773 58.42358398 C107.78464501 59.35617318 107.77461229 60.28876238 107.76427555 61.24961185 C107.73306052 64.24841445 107.70818993 67.24723035 107.68359375 70.24609375 C107.66517461 72.10551365 107.6463371 73.96492946 107.6270752 75.82434082 C107.55881878 82.69534543 107.49864375 89.56642841 107.4375 96.4375 C107.293125 111.803125 107.14875 127.16875 107 143 C139.01 143 171.02 143 204 143 C203.90918745 125.06628553 203.90918745 125.06628553 203.79101562 107.1328125 C203.7367324 99.81610059 203.68562047 92.49946464 203.65356445 85.18261719 C203.62751266 79.28213429 203.58709635 73.38190706 203.53681374 67.48158264 C203.52015783 65.23302903 203.50863563 62.9844312 203.50238609 60.73582458 C203.49273139 57.58077332 203.46465466 54.42637427 203.43237305 51.27148438 C203.43380814 50.34647125 203.43524323 49.42145813 203.4367218 48.46841431 C203.35266213 42.64074976 202.33210674 38.34875002 200 33 C199.72800781 32.26910156 199.45601562 31.53820312 199.17578125 30.78515625 C195.28836008 23.02790405 186.38722711 19.75003773 179 16 C179.33 10.72 179.66 5.44 180 0 C222.9 0 265.8 0 310 0 C310 5.61 310 11.22 310 17 C296 24 296 24 293.6171875 25.078125 C291.16488772 26.47605434 290.8703105 28.3890685 290 31 C289.649375 31.639375 289.29875 32.27875 288.9375 32.9375 C286.33878189 38.65467985 286.85644025 45.17576629 286.86628723 51.32156372 C286.86402167 52.35952933 286.86175612 53.39749494 286.85942191 54.46691406 C286.85309292 57.94426262 286.85391058 61.4215721 286.85473633 64.89892578 C286.8517441 67.39262441 286.84834142 69.88632258 286.84455872 72.38002014 C286.83663794 78.45123295 286.83350426 84.52243041 286.83294634 90.59364696 C286.83247061 95.53190368 286.83041301 100.47015722 286.82724571 105.40841293 C286.81844049 119.42324745 286.81382596 133.43807432 286.81457619 147.45291163 C286.81461614 148.2080504 286.8146561 148.96318917 286.81469727 149.74121094 C286.81473815 150.49727697 286.81477903 151.253343 286.81482115 152.03232013 C286.81522726 164.2746795 286.80566623 176.51700807 286.7915589 188.75935854 C286.77717281 201.34342672 286.77028999 213.9274799 286.77115268 226.51155651 C286.77148394 233.57094109 286.76876784 240.63029341 286.75797462 247.68967056 C286.74788211 254.33316332 286.74822779 260.97659978 286.75549126 267.62010002 C286.75653478 270.05325228 286.75418805 272.48640881 286.7481308 274.91955376 C286.74037482 278.25195982 286.74507961 281.58413311 286.75276184 284.91653442 C286.7450465 286.34625192 286.7450465 286.34625192 286.73717529 287.8048526 C286.79058083 298.35472385 287.31639033 309.06498388 295 317 C299.7191693 320.51106196 304.54586308 322.81834523 310 325 C310 330.94 310 336.88 310 343 C266.77 343 223.54 343 179 343 C179 337.39 179 331.78 179 326 C182.22265625 324.33984375 185.4453125 322.6796875 188.66796875 321.01953125 C193.6064223 318.02635366 197.00219124 314.56738758 199.75 309.5 C200.15734375 308.7678125 200.5646875 308.035625 200.984375 307.28125 C202.73912885 303.33980288 203.12428768 299.46485408 203.15821838 295.18473816 C203.1680072 294.24389374 203.17779602 293.30304932 203.18788147 292.33369446 C203.19363693 291.31373886 203.1993924 290.29378326 203.20532227 289.24291992 C203.21522186 288.15954346 203.22512146 287.07616699 203.23532104 285.95996094 C203.26687692 282.38348568 203.2916702 278.80699714 203.31640625 275.23046875 C203.33698087 272.748964 203.35797748 270.26746272 203.37937927 267.78596497 C203.43454739 261.25776985 203.48397992 254.72954339 203.53222656 248.20129395 C203.5907098 240.36680542 203.65751605 232.53238105 203.72252655 224.69794464 C203.82046989 212.79866475 203.90937136 200.89934798 204 189 C171.99 189 139.98 189 107 189 C107.06186259 207.49819612 107.06186259 207.49819612 107.16015625 225.99609375 C107.2083619 233.54931815 107.25245526 241.10239864 107.27099609 248.65576172 C107.28622735 254.75083237 107.32078753 260.8455245 107.36830902 266.94042587 C107.38305626 269.25658743 107.39103716 271.57280304 107.39188385 273.88901138 C106.97049738 295.98803498 106.97049738 295.98803498 116.37109375 315.390625 C121.4232829 320.38223634 126.15656864 322.43371324 133 325 C133 330.94 133 336.88 133 343 C89.11 343 45.22 343 0 343 C0 337.06 0 331.12 0 325 C2.289375 324.13375 2.289375 324.13375 4.625 323.25 C12.47589367 320.08306687 18.8057662 316.15644942 22.25 308.0625 C23.92510503 301.2224878 24.14327729 294.61047876 24.12698364 287.61392212 C24.12932363 286.06476768 24.12932363 286.06476768 24.13171089 284.48431718 C24.13569301 281.03070857 24.132542 277.57714408 24.12939453 274.12353516 C24.13074982 271.6445259 24.13253048 269.16551685 24.13470459 266.68650818 C24.13879075 260.6558744 24.13819299 254.62525787 24.13529195 248.59462477 C24.13303108 243.69116823 24.13272836 238.78771518 24.13381577 233.88425827 C24.133969 233.18563881 24.13412223 232.48701935 24.13428011 231.76722961 C24.13459984 230.34785093 24.13492406 228.92847225 24.1352527 227.50909357 C24.13810281 214.20585691 24.13482803 200.90262715 24.12945233 187.59939162 C24.12498668 176.1954894 24.12575917 164.79159735 24.13037109 153.38769531 C24.13572851 140.13427576 24.1378261 126.88086225 24.13475883 113.62744176 C24.13444029 112.21275226 24.13412592 110.79806276 24.13381577 109.38337326 C24.13366149 108.68738469 24.13350721 107.99139611 24.13334826 107.27431697 C24.13248647 102.38027055 24.13393876 97.48622798 24.13629532 92.59218216 C24.13940082 85.99794265 24.13717414 79.40371935 24.13140106 72.80948067 C24.13008041 70.39119435 24.13045578 67.97290641 24.13266373 65.55462074 C24.13540259 62.24974051 24.1319606 58.94492151 24.12698364 55.64004517 C24.13032973 54.2099159 24.13032973 54.2099159 24.13374341 52.75089514 C24.11307465 38.57518708 24.11307465 38.57518708 17.6015625 26.34375 C12.57487551 21.53774683 6.41809642 19.45185706 0 17 C0 11.39 0 5.78 0 0 Z " fill="#FBF8F0" transform="translate(627,219)"/>
<path d="M0 0 C0.66 0 1.32 0 2 0 C3.5625 2.8125 3.5625 2.8125 5 6 C4.67 6.99 4.34 7.98 4 9 C3.67 8.34 3.34 7.68 3 7 C2.67 70.69 2.34 134.38 2 200 C-0.14470845 195.71058311 -0.27648596 192.71576135 -0.24050903 188.07806396 C-0.24221788 187.27427 -0.24392673 186.47047604 -0.24568737 185.64232469 C-0.24898447 182.94602972 -0.23797494 180.24998302 -0.22705078 177.55371094 C-0.22648671 175.62211106 -0.22680314 173.69051076 -0.22793579 171.75891113 C-0.22851048 166.51134403 -0.21673729 161.26386804 -0.20278788 156.01632214 C-0.19029995 150.5336929 -0.18911155 145.05106167 -0.18673706 139.56842041 C-0.18051659 129.18457183 -0.16409809 118.80076527 -0.14403808 108.41693521 C-0.12169672 96.59603332 -0.11069009 84.77512945 -0.10064721 72.95421171 C-0.07973237 48.63611783 -0.04454537 24.31806127 0 0 Z " fill="#073A79" transform="translate(212,317)"/>
<path d="M0 0 C0.66 0 1.32 0 2 0 C2.02338384 20.05405126 2.04100611 40.10809975 2.05181217 60.16216183 C2.05696348 69.47407932 2.06398395 78.78598834 2.07543945 88.09790039 C2.08542192 96.21629882 2.09186191 104.3346911 2.09408849 112.4530955 C2.09538955 116.74975855 2.09843706 121.04640403 2.10573006 125.34306145 C2.1125465 129.39198318 2.11460556 133.4408802 2.11310768 137.48980713 C2.11338149 138.97119341 2.1153531 140.45258057 2.11920547 141.93396187 C2.13759153 149.3725735 2.02465348 156.62676445 1 164 C0.67 164 0.34 164 0 164 C-0.15379211 142.912405 -0.30182833 121.82477664 -0.4429636 100.73709297 C-0.50862634 90.94628923 -0.57619099 81.15550544 -0.64819336 71.36474609 C-0.71092693 62.83369258 -0.77013247 54.30262323 -0.82505554 45.77151573 C-0.85427617 41.25205346 -0.88529454 36.73261929 -0.92053413 32.21319962 C-0.95361703 27.96323669 -0.98199845 23.71326882 -1.00670624 19.46324921 C-1.01663608 17.8998964 -1.02831333 16.3365536 -1.04183006 14.77322769 C-1.05996876 12.64570233 -1.07193216 10.51823085 -1.08229065 8.39065552 C-1.09058679 7.1978554 -1.09888292 6.00505527 -1.10743046 4.7761097 C-1 2 -1 2 0 0 Z " fill="#315086" transform="translate(466,309)"/>
<path d="M0 0 C11.04924426 1.01173803 22.02633203 2.35494172 33 4 C34.13937012 4.1659668 35.27874023 4.33193359 36.45263672 4.50292969 C38.05389404 4.74897949 38.05389404 4.74897949 39.6875 5 C40.64011719 5.144375 41.59273437 5.28875 42.57421875 5.4375 C45 6 45 6 48 8 C47.01 8.33 46.02 8.66 45 9 C45.495 11.475 45.495 11.475 46 14 C41.07055885 13.35199835 36.59874082 11.90811209 31.9375 10.25 C23.95354418 7.47516543 15.90344581 5.42444551 7.64233398 3.64941406 C6.36338257 3.36662598 6.36338257 3.36662598 5.05859375 3.078125 C4.29861084 2.91731445 3.53862793 2.75650391 2.75561523 2.59082031 C1 2 1 2 0 0 Z " fill="#F5F6F4" transform="translate(557,584)"/>
<path d="M0 0 C0.66 0.33 1.32 0.66 2 1 C0.68 1.33 -0.64 1.66 -2 2 C-2 6.95 -2 11.9 -2 17 C5.59 17 13.18 17 21 17 C21 17.66 21 18.32 21 19 C12.75 19 4.5 19 -4 19 C-4 13.39 -4 7.78 -4 2 C-2.68 1.34 -1.36 0.68 0 0 Z " fill="#E2ECEF" transform="translate(810,543)"/>
<path d="M0 0 C0.66 0.33 1.32 0.66 2 1 C-3.64208493 6.88217365 -9.43060867 12.17002198 -16 17 C-16.66 16.67 -17.32 16.34 -18 16 C-16.25838184 10.67193851 -14.74727767 8.2602386 -9.80859375 5.58984375 C-9.17050781 5.27144531 -8.53242187 4.95304688 -7.875 4.625 C-6.60118849 3.95122745 -5.32773199 3.27678316 -4.0546875 2.6015625 C-2.54261719 1.80878906 -2.54261719 1.80878906 -1 1 C-0.67 0.67 -0.34 0.34 0 0 Z " fill="#0E3D7B" transform="translate(629,720)"/>
<path d="M0 0 C3.04191531 0.31021513 6.08351734 0.62309453 9.125 0.9375 C9.9809375 1.02451172 10.836875 1.11152344 11.71875 1.20117188 C16.17719181 1.66416391 20.58673994 2.19693137 25 3 C24.67 4.32 24.34 5.64 24 7 C21.1240849 6.37899527 18.24931373 5.75333835 15.375 5.125 C14.56675781 4.95097656 13.75851562 4.77695312 12.92578125 4.59765625 C8.51437032 3.62929775 4.25940436 2.5300773 0 1 C0 0.67 0 0.34 0 0 Z " fill="#DEE7ED" transform="translate(557,584)"/>
<path d="M0 0 C0.66 0.33 1.32 0.66 2 1 C1.68160156 1.82242188 1.36320312 2.64484375 1.03515625 3.4921875 C-0.11640631 7.39446365 -0.40904548 11.0902689 -0.5625 15.125 C-0.92693718 23.57684091 -0.92693718 23.57684091 -2 27 C-5.36574004 19.48766824 -4.78068857 12.45446326 -2 4.8125 C-1.3509437 3.20112759 -0.69062925 1.59399698 0 0 Z " fill="#E2ECEE" transform="translate(402,559)"/>
<path d="M0 0 C1.65 0 3.3 0 5 0 C5 5.94 5 11.88 5 18 C1.04 18 -2.92 18 -7 18 C-7 17.67 -7 17.34 -7 17 C-4.03 16.67 -1.06 16.34 2 16 C2.33 11.05 2.66 6.1 3 1 C2.01 0.67 1.02 0.34 0 0 Z " fill="#E4EEF2" transform="translate(755,544)"/>
<path d="M0 0 C3.53391969 1.48171072 5.59930326 3.45548562 8.125 6.3125 C8.80820312 7.07175781 9.49140625 7.83101562 10.1953125 8.61328125 C12.00891715 11.01179303 13.02777353 13.16851568 14 16 C4.40546697 9.84965831 4.40546697 9.84965831 1 6 C2.98 6.66 4.96 7.32 7 8 C6.4946875 7.50628906 5.989375 7.01257813 5.46875 6.50390625 C4.49421875 5.54291016 4.49421875 5.54291016 3.5 4.5625 C2.8503125 3.92441406 2.200625 3.28632812 1.53125 2.62890625 C0 1 0 1 0 0 Z " fill="#0C2C6B" transform="translate(651,626)"/>
<path d="M0 0 C3.3 0 6.6 0 10 0 C8.68 1.65 7.36 3.3 6 5 C4.02 4.34 2.04 3.68 0 3 C0 2.01 0 1.02 0 0 Z " fill="#EBF0F1" transform="translate(581,588)"/>
<path d="M0 0 C1 2 1 2 0.44140625 3.875 C0.15136719 4.57625 -0.13867188 5.2775 -0.4375 6 C-1.66557525 8.90915074 -1.66557525 8.90915074 -2 12 C-2.66 12 -3.32 12 -4 12 C-4.66 13.98 -5.32 15.96 -6 18 C-7.35685993 13.92942022 -5.80868515 11.57910733 -4.125 7.875 C-3.70154297 6.90626953 -3.70154297 6.90626953 -3.26953125 5.91796875 C-1.16870301 1.16870301 -1.16870301 1.16870301 0 0 Z " fill="#0E3173" transform="translate(371,532)"/>
<path d="M0 0 C-10.37357631 3.44419134 -10.37357631 3.44419134 -16 3 C-15.01 2.67 -14.02 2.34 -13 2 C-13 1.34 -13 0.68 -13 0 C-11.39679026 -0.19551338 -9.79237014 -0.38111983 -8.1875 -0.5625 C-7.29417969 -0.66691406 -6.40085937 -0.77132812 -5.48046875 -0.87890625 C-3 -1 -3 -1 0 0 Z " fill="#062D70" transform="translate(491,699)"/>
<path d="M0 0 C0.66 0.33 1.32 0.66 2 1 C-0.475 6.94 -0.475 6.94 -3 13 C-3.66 12.34 -4.32 11.68 -5 11 C-4.01 8.03 -3.02 5.06 -2 2 C-1.34 2 -0.68 2 0 2 C0 1.34 0 0.68 0 0 Z " fill="#ECF2F2" transform="translate(410,435)"/>
<path d="M0 0 C0.66 0.33 1.32 0.66 2 1 C0.02 2.98 -1.96 4.96 -4 7 C-4.99 6.67 -5.98 6.34 -7 6 C-4.74259377 3.66475218 -2.7194239 1.81294927 0 0 Z " fill="#072060" transform="translate(629,720)"/>
<path d="M0 0 C0.33 0.99 0.66 1.98 1 3 C-3.455 4.485 -3.455 4.485 -8 6 C-5.51047079 3.33264727 -3.36591866 1.44253657 0 0 Z " fill="#073273" transform="translate(522,777)"/>
<path d="M0 0 C1.39195915 4.17587745 -0.17676781 6.13474776 -2 10 C-2.66 9.67 -3.32 9.34 -4 9 C-3.67 7.35 -3.34 5.7 -3 4 C-2.34 4 -1.68 4 -1 4 C-0.67 2.68 -0.34 1.36 0 0 Z " fill="#093275" transform="translate(443,243)"/>
<path d="M0 0 C0.66 0 1.32 0 2 0 C3.15941038 3.47823115 2.70820884 5.45895578 2 9 C0 7 0 7 -0.125 3.375 C-0.08375 2.26125 -0.0425 1.1475 0 0 Z " fill="#033878" transform="translate(556,470)"/>
</svg>
